# xmcd
#
# Track frame offsets:
#	150
#	14095
#	29082
#	40807
#	53737
#	67387
#	79045
#	90737
#	102767
#	114325
#	125510
#	137287
#	151120
#	161780
#	171630
#	186700
#
# Disc length: 2678 seconds
#
# Revision: 0
# Processed by: cddbd v1.4PL0 Copyright (c) Steve Scherf et al.
# Submitted via: EasyCDDAExtractor 5.0.5.1
#
DISCID=e20a7410
DTITLE=Screamin' Jay Hawkins - Spells and Potions - Disc 1
DYEAR=2000
DGENRE=Blues
TTITLE0=Not Anymore
TTITLE1=Please Try To Understand
TTITLE2=Baptize Me In Wine
TTITLE3=This Is All
TTITLE4=She Put The Wammee On Me
TTITLE5=Well I Tried
TTITLE6=You're All Of My Life To Me
TTITLE7=I Hear Voices
TTITLE8=Talk About Me
TTITLE9=Just Don't Care
TTITLE10=The Whammy
TTITLE11=Poor Folks
TTITLE12=Your Kind Of Love
TTITLE13=All Night
TTITLE14=Monkberry Moon Delight
TTITLE15=Sweet Ginny
EXTD=
EXTT0=
EXTT1=
EXTT2=
EXTT3=
EXTT4=
EXTT5=
EXTT6=
EXTT7=
EXTT8=
EXTT9=
EXTT10=
EXTT11=
EXTT12=
EXTT13=
EXTT14=
EXTT15=
PLAYORDER=
